<svg xmlns:xlink="http://www.w3.org/1999/xlink" width="55" height="49" viewBox="0 0 55 49" fill="none" xmlns="http://www.w3.org/2000/svg">
<path d="M27.157 48.6077C18.8503 48.6077 10.5726 48.6077 2.26587 48.6077C0.268789 48.6077 0.00830078 48.3456 0.00830078 46.3365C0.00830078 36.3781 0.00830078 26.4488 0.00830078 16.4905C0.00830078 14.2193 0.239846 14.0154 2.52636 14.0154C5.91271 14.0154 9.27012 13.9863 12.6565 14.0446C13.901 14.0737 14.3352 13.7534 14.3062 12.4139C14.2194 9.06538 14.2483 5.7168 14.2773 2.36823C14.2773 0.679381 14.6535 0.271729 16.3033 0.271729C23.6838 0.271729 31.0643 0.271729 38.4448 0.271729C39.7473 0.271729 40.2683 0.854089 40.2683 2.13528C40.2393 5.62945 40.2972 9.12361 40.2393 12.6178C40.2104 13.6951 40.5287 14.0446 41.6286 14.0446C45.2465 13.9863 48.8644 14.0154 52.4823 14.0154C54.1899 14.0154 54.5083 14.3357 54.5083 16.0828C54.5083 26.2159 54.5083 36.349 54.5083 46.5112C54.5083 48.2874 54.1899 48.5786 52.3665 48.5786C43.944 48.6077 35.5505 48.6077 27.157 48.6077ZM37.5476 45.8997C37.5476 31.5154 37.5476 17.2767 37.5476 3.00882C30.6302 3.00882 23.7996 3.00882 16.969 3.00882C16.969 17.3349 16.969 31.5736 16.969 45.8706C18.2425 45.8706 19.4292 45.8706 20.7606 45.8706C20.7606 43.5994 20.7606 41.4446 20.7606 39.2608C20.7606 37.1061 20.9921 36.8731 23.1918 36.8731C25.8835 36.8731 28.6042 36.8731 31.2959 36.8731C33.5534 36.8731 33.756 37.0769 33.785 39.3773C33.785 41.532 33.785 43.7158 33.785 45.9288C35.1453 45.8997 36.2741 45.8997 37.5476 45.8997ZM51.7876 45.8706C51.7876 36.0869 51.7876 26.4488 51.7876 16.6361C48.3145 16.6361 44.9571 16.6652 41.5996 16.6069C40.4709 16.5778 40.2393 17.0146 40.2393 18.0629C40.2683 26.8856 40.2683 35.7084 40.2683 44.5312C40.2683 44.9679 40.3261 45.3756 40.3551 45.8706C44.1756 45.8706 47.9093 45.8706 51.7876 45.8706ZM2.72896 16.7234C2.72896 26.478 2.72896 36.1452 2.72896 45.8123C6.60734 45.8123 10.37 45.8123 14.1905 45.8123C14.1905 36.0578 14.1905 26.4488 14.1905 16.7234C10.341 16.7234 6.54946 16.7234 2.72896 16.7234ZM31.1222 45.8706C31.1222 43.9197 31.1512 42.0852 31.0933 40.2799C31.0933 40.0179 30.6302 39.5228 30.3407 39.5228C28.2858 39.4646 26.2019 39.4646 24.1469 39.5228C23.8864 39.5228 23.4523 39.9596 23.4523 40.1926C23.3944 42.0561 23.4233 43.9197 23.4233 45.8706C25.9993 45.8706 28.4305 45.8706 31.1222 45.8706Z" fill="#0086E4"></path>
<path d="M22.7005 13.3166C22.0348 13.3166 21.3112 13.4622 20.7034 13.2584C20.2114 13.0836 19.6036 12.4722 19.6036 12.0645C19.6036 11.6277 20.2403 10.8707 20.6745 10.8124C22.0637 10.6668 23.482 10.6668 24.8423 10.8124C25.2475 10.8707 25.8842 11.6569 25.8553 12.0936C25.8553 12.5013 25.1896 13.1128 24.7265 13.2584C24.1187 13.4913 23.3951 13.3166 22.7005 13.3166Z" fill="#0086E4"></path>
<path d="M22.6423 31.6316C23.308 31.6316 24.0315 31.4569 24.6393 31.6899C25.1603 31.8646 25.7681 32.4469 25.855 32.9419C25.9128 33.2913 25.2182 34.1358 24.813 34.1649C23.4527 34.3396 22.0345 34.3396 20.6741 34.1649C20.24 34.1067 19.6611 33.2913 19.6032 32.7963C19.5743 32.4469 20.2979 31.8646 20.7899 31.6899C21.3398 31.486 22.0055 31.6316 22.6423 31.6316Z" fill="#0086E4"></path>
<path d="M31.701 34.2234C31.0353 34.2234 30.3117 34.3981 29.7039 34.1652C29.2408 33.9904 28.662 33.3499 28.662 32.9131C28.662 32.4763 29.3277 31.7484 29.7329 31.6901C31.0932 31.5445 32.5114 31.5445 33.8718 31.6901C34.277 31.7484 34.9137 32.5054 34.9137 32.9422C34.8848 33.379 34.277 34.0196 33.8139 34.1652C33.1771 34.3981 32.3957 34.2525 31.701 34.2234C31.701 34.2525 31.701 34.2525 31.701 34.2234Z" fill="#0086E4"></path>
<path d="M22.6419 8.13373C22.0052 8.13373 21.3395 8.27932 20.7896 8.07549C20.2975 7.90079 19.6318 7.34754 19.6029 6.93989C19.574 6.50312 20.1818 5.68781 20.558 5.62958C21.9762 5.48399 23.4523 5.48399 24.8706 5.62958C25.2758 5.68781 25.8546 6.50312 25.8257 6.93989C25.7967 7.34754 25.131 7.90079 24.639 8.07549C24.0312 8.27932 23.3366 8.13373 22.6419 8.13373Z" fill="#0086E4"></path>
<path d="M31.8739 5.54214C32.5107 5.54214 33.2053 5.36743 33.7263 5.60038C34.2472 5.83332 34.7972 6.41568 34.884 6.93981C34.9419 7.26011 34.1894 8.04629 33.7552 8.07541C32.4238 8.221 31.0635 8.221 29.7321 8.07541C29.298 8.01718 28.6323 7.28923 28.6323 6.88157C28.6323 6.4448 29.2401 5.77509 29.7032 5.6295C30.3978 5.39655 31.1793 5.57126 31.8739 5.54214Z" fill="#0086E4"></path>
<path d="M31.7301 13.3166C31.0934 13.3166 30.3987 13.4913 29.8778 13.2584C29.3568 13.0545 28.749 12.4722 28.6621 11.9772C28.6043 11.6569 29.3278 10.8416 29.762 10.7833C31.0934 10.6377 32.4537 10.6086 33.7851 10.7833C34.2482 10.8416 34.827 11.5986 34.9139 12.1228C34.9718 12.443 34.2192 13.0836 33.7272 13.2292C33.1194 13.4913 32.3958 13.3166 31.7301 13.3166Z" fill="#0086E4"></path>
<path d="M22.6416 18.587C22.0048 18.587 21.3102 18.7617 20.7892 18.5287C20.2682 18.3249 19.6894 17.7426 19.6025 17.2184C19.5447 16.869 20.2682 16.0828 20.7313 16.0246C22.0627 15.8499 23.423 15.8499 24.7544 16.0246C25.1886 16.0828 25.9122 16.869 25.8543 17.2184C25.7674 17.7134 25.1596 18.3249 24.6676 18.4996C24.0598 18.7326 23.3362 18.587 22.6416 18.587Z" fill="#0086E4"></path>
<path d="M31.7016 18.5579C31.0359 18.5579 30.3123 18.7034 29.7045 18.4996C29.2704 18.354 28.6626 17.7426 28.6915 17.364C28.7205 16.8981 29.2993 16.1119 29.7045 16.0828C31.1227 15.9372 32.5988 15.9372 34.0171 16.0828C34.3933 16.1119 34.9722 16.869 34.9722 17.2767C34.9722 17.6843 34.4512 18.354 34.0171 18.4705C33.3224 18.7034 32.4831 18.587 31.7305 18.6452C31.7016 18.6161 31.7016 18.587 31.7016 18.5579Z" fill="#0086E4"></path>
<path d="M23.0184 23.6534C22.3527 23.6534 21.6291 23.799 21.0213 23.5952C20.5872 23.4496 19.9794 22.8381 20.0083 22.4596C20.0373 21.9937 20.6161 21.2075 21.0213 21.1784C22.4395 21.0328 23.9156 21.0328 25.3339 21.1784C25.7101 21.2075 26.289 21.9646 26.289 22.3722C26.289 22.7799 25.768 23.4496 25.3339 23.5661C24.6392 23.799 23.7999 23.6826 23.0474 23.7408C23.0184 23.7117 23.0184 23.6826 23.0184 23.6534Z" fill="#0086E4"></path>
<path d="M31.817 21.2074C32.4248 21.2074 33.1194 21.0327 33.6693 21.2657C34.1903 21.4695 34.9139 22.0518 34.9139 22.4886C34.9428 22.9254 34.2192 23.7116 33.7561 23.7698C32.4537 23.9445 31.0644 23.9154 29.762 23.7698C29.3278 23.7116 28.6043 22.9254 28.6621 22.576C28.72 22.081 29.3278 21.4695 29.8488 21.2657C30.3987 21.0327 31.1513 21.2074 31.817 21.2074Z" fill="#0086E4"></path>
<path d="M22.7295 29.0112C22.0928 29.0112 21.4271 29.1859 20.8771 28.953C20.3562 28.7492 19.9799 28.1668 19.5168 27.73C19.951 27.2933 20.3272 26.5362 20.8193 26.478C22.0928 26.3032 23.4241 26.3032 24.6976 26.478C25.1607 26.5362 25.537 27.3224 25.9711 27.7592C25.537 28.1668 25.1318 28.7492 24.6108 28.953C24.0319 29.1568 23.3373 29.0112 22.7295 29.0112Z" fill="#0086E4"></path>
<path d="M31.9046 26.4488C32.5414 26.4488 33.236 26.2741 33.757 26.507C34.278 26.7108 34.8569 27.3223 34.9437 27.8173C35.0016 28.1667 34.2491 28.9238 33.8149 28.982C32.4835 29.1276 31.1232 29.1276 29.7918 28.9529C29.3576 28.8947 28.692 28.1667 28.692 27.7591C28.692 27.3223 29.2998 26.6817 29.7918 26.5361C30.3996 26.2741 31.1811 26.4488 31.9046 26.4488Z" fill="#0086E4"></path>
<path d="M46.0861 34.9222C45.0441 34.8349 43.5101 35.2425 43.5391 33.5828C43.568 31.9522 45.0731 32.3016 46.115 32.3016C47.128 32.3016 48.5463 32.0104 48.5752 33.5537C48.6041 35.2425 47.0991 34.8057 46.0861 34.9222Z" fill="#0086E4"></path>
<path d="M46.0565 36.873C46.2591 36.873 46.4327 36.873 46.6353 36.873C47.5905 36.8439 48.6035 36.9021 48.6035 38.1833C48.5745 39.3481 47.6483 39.4645 46.7222 39.4936C46.1433 39.4936 45.5065 39.6392 45.0145 39.4354C44.4356 39.2025 43.6542 38.6783 43.5674 38.1833C43.3937 37.2516 44.1752 36.873 45.0724 36.873C45.3908 36.873 45.7091 36.873 46.0565 36.873Z" fill="#0086E4"></path>
<path d="M46.0859 21.2076C44.986 21.1494 43.5099 21.4988 43.5389 19.8682C43.5678 18.2085 45.0728 18.6161 46.1148 18.6161C47.1278 18.6161 48.546 18.2958 48.575 19.8682C48.575 21.5279 47.0989 21.1203 46.0859 21.2076Z" fill="#0086E4"></path>
<path d="M46.0862 23.1294C47.1281 23.2167 48.5463 22.8091 48.5753 24.4106C48.6042 26.0994 47.1571 25.7791 46.0862 25.7791C45.0153 25.7791 43.5392 26.0412 43.5681 24.4397C43.5681 22.7509 45.1021 23.275 46.0862 23.1294Z" fill="#0086E4"></path>
<path d="M46.0866 30.3506C45.0157 30.2632 43.5107 30.6417 43.5686 28.982C43.5975 27.3805 45.0736 27.6717 46.1445 27.6717C47.1575 27.6717 48.5758 27.4096 48.5758 28.9529C48.5758 30.6709 47.0997 30.2632 46.0866 30.3506Z" fill="#0086E4"></path>
<path d="M46.0861 44.0361C45.0152 43.9488 43.5101 44.3273 43.5391 42.6676C43.568 41.1535 44.9573 41.3864 45.9993 41.4155C47.0412 41.4446 48.5463 41.037 48.5752 42.6967C48.6042 44.3856 47.0702 43.8906 46.0861 44.0361Z" fill="#0086E4"></path>
<path d="M8.40232 30.3797C7.36037 30.2923 5.9711 30.6418 5.9711 29.0694C5.94216 27.4097 7.38931 27.7008 8.43127 27.7008C9.47322 27.7008 10.9493 27.4097 10.9783 28.982C11.0072 30.7 9.44428 30.2923 8.40232 30.3797Z" fill="#0086E4"></path>
<path d="M8.43023 34.9222C7.41722 34.8348 5.91217 35.2425 5.94112 33.5827C5.94112 31.9521 7.41722 32.2724 8.45917 32.2724C9.50112 32.2724 10.9772 31.9812 10.9772 33.5827C10.9772 35.2425 9.47218 34.8348 8.43023 34.9222Z" fill="#0086E4"></path>
<path d="M8.48812 21.2075C7.44616 21.1201 5.97006 21.586 5.94112 19.8972C5.91217 18.2083 7.41722 18.616 8.45917 18.5868C9.53007 18.5577 10.9772 18.2665 10.9483 19.9263C10.9483 21.4695 9.53007 21.1492 8.48812 21.2075Z" fill="#0086E4"></path>
<path d="M8.63292 25.5753C7.59097 25.4879 6.11486 25.9538 6.08592 24.265C6.05698 22.5761 7.56202 22.9838 8.60398 22.9546C9.67488 22.9255 11.122 22.6343 11.0931 24.2941C11.0931 25.8373 9.67488 25.517 8.63292 25.5753Z" fill="#0086E4"></path>
<path d="M8.45972 36.8731C8.69127 36.8731 8.95175 36.8731 9.1833 36.8731C10.1384 36.8439 11.0357 37.0478 11.0067 38.2125C11.0067 39.2607 10.1384 39.4937 9.24119 39.4937C8.60444 39.4937 7.93874 39.6684 7.38882 39.4354C6.80996 39.2025 6.05743 38.7075 5.97061 38.1834C5.79695 37.2516 6.57841 36.8731 7.44671 36.8731C7.79403 36.8731 8.1124 36.8731 8.45972 36.8731Z" fill="#0086E4"></path>
<path d="M8.43006 44.036C7.446 43.9487 6.02778 44.3563 5.94095 42.784C5.88307 41.0951 7.33022 41.4154 8.40112 41.3863C9.47202 41.3572 10.9481 41.066 10.9481 42.6675C10.9771 44.3563 9.47202 43.8905 8.43006 44.036Z" fill="#0086E4"></path>
</svg>