<svg xmlns:xlink="http://www.w3.org/1999/xlink" width="50" height="43" viewBox="0 0 50 43" fill="none" xmlns="http://www.w3.org/2000/svg">
<path d="M7.14628 26.5593C4.74543 26.0341 3.01982 24.9087 1.96945 22.883C1.21918 21.4575 0.994102 19.9569 1.29421 18.3814C2.04447 14.9302 4.82046 12.6794 8.34671 12.7544C11.5729 12.8294 14.4239 15.3053 14.949 18.4564C15.4742 21.6075 13.8987 25.5089 9.24703 26.6343C9.84724 26.7844 10.3724 26.9344 10.8226 27.0845C14.0487 28.2099 16.1495 31.2109 16.2245 34.5871C16.2245 36.8379 16.2245 39.0887 16.2245 41.4145C16.2245 42.3899 15.7743 42.84 14.799 42.84C10.3724 42.84 5.87083 42.84 1.44426 42.84C0.543943 42.84 0.0937832 42.4649 0.0187566 41.6396C0.0187566 39.0887 -0.0562699 36.6128 0.0937832 34.0619C0.318863 30.4607 2.94479 27.6096 6.54607 26.8594C6.6211 26.7093 6.77115 26.7093 7.14628 26.5593ZM2.34458 40.4392C6.17094 40.4392 9.99729 40.4392 13.8236 40.4392C13.8236 38.3385 13.8987 36.3127 13.8236 34.362C13.6736 31.361 11.2727 29.0352 8.34671 28.9601C5.34564 28.8851 2.64469 30.9858 2.41961 33.9869C2.19453 36.0877 2.34458 38.2634 2.34458 40.4392ZM8.0466 24.3085C10.5975 24.3085 12.6982 22.2828 12.6982 19.6568C12.6982 17.1059 10.6725 15.0802 8.12163 15.0802C5.57072 15.0802 3.46998 17.1059 3.46998 19.6568C3.39495 22.2077 5.4957 24.3085 8.0466 24.3085Z" fill="#0086E4"></path>
<path d="M42.7842 26.5593C43.7595 27.0094 44.8849 27.3095 45.7853 27.8347C48.3362 29.4103 49.6116 31.7361 49.6867 34.7372C49.7617 36.988 49.6867 39.2388 49.6867 41.4896C49.6867 42.4649 49.2365 42.84 48.2611 42.84C43.8346 42.84 39.333 42.84 34.9064 42.84C33.856 42.84 33.4809 42.3899 33.4809 41.3395C33.4809 39.2388 33.4809 37.063 33.4809 34.9623C33.4809 30.8358 36.0318 27.6097 40.0832 26.7844C40.2333 26.7844 40.3083 26.7093 40.5334 26.6343C36.1068 25.659 34.2312 21.8326 34.7564 18.5314C35.2815 15.4553 38.1326 12.8294 41.2837 12.7544C44.8099 12.6794 47.736 14.9302 48.4112 18.3814C48.7863 20.257 48.4112 22.0577 47.2858 23.7083C46.1604 25.2838 44.5848 26.1841 42.7842 26.5593ZM35.8818 40.4392C39.7081 40.4392 43.5345 40.4392 47.3608 40.4392C47.3608 39.0137 47.3608 37.6632 47.3608 36.3127C47.3608 35.4874 47.4359 34.6621 47.2858 33.8369C46.9107 30.9108 44.2847 28.8101 41.3587 28.9601C38.5077 29.0352 36.0318 31.286 35.8818 34.0619C35.8067 36.0877 35.8818 38.1884 35.8818 40.4392ZM41.5838 24.3085C44.1347 24.3085 46.1604 22.2828 46.1604 19.7319C46.1604 17.181 44.1347 15.0802 41.5088 15.0802C38.8828 15.0802 36.9321 17.1059 36.9321 19.7319C37.0072 22.2828 39.0329 24.3085 41.5838 24.3085Z" fill="#0086E4"></path>
<path d="M25.7525 26.5595C26.4277 26.7846 26.8779 26.8596 27.328 27.0096C30.6292 28.135 32.805 31.0611 32.88 34.5123C32.88 36.7631 32.88 39.0889 32.88 41.3397C32.88 42.3151 32.4299 42.6902 31.5295 42.6902C27.103 42.6902 22.6014 42.6902 18.1748 42.6902C17.1995 42.6902 16.7493 42.3151 16.7493 41.2647C16.7493 39.0139 16.7493 36.8381 16.7493 34.5873C16.7493 30.6109 19.3752 27.4598 23.2766 26.6345C23.4267 26.6345 23.5017 26.5595 23.8768 26.4844C21.7011 26.0343 20.1255 25.0589 19.0751 23.4084C17.9497 21.7578 17.6496 19.8821 18.0998 17.9314C18.775 14.8553 21.7761 12.6045 25.0022 12.6796C28.3034 12.7546 31.0794 15.0804 31.6796 18.4566C32.0547 20.3323 31.6046 22.1329 30.4792 23.7085C29.3538 25.284 27.8532 26.1843 25.7525 26.5595ZM30.6292 40.4394C30.6292 38.4137 30.6292 36.538 30.6292 34.5873C30.5542 31.3612 28.0033 28.8853 24.8522 28.8853C21.7011 28.8853 19.1501 31.3612 19.0751 34.5873C19.0001 36.388 19.0751 38.1886 19.0751 40.0643C19.0751 40.2143 19.1501 40.3644 19.1501 40.4394C22.9765 40.4394 26.7278 40.4394 30.6292 40.4394ZM24.8522 24.3087C27.4031 24.3087 29.4288 22.2079 29.4288 19.7321C29.4288 17.1812 27.328 15.0804 24.7771 15.0804C22.2262 15.0804 20.2005 17.1812 20.2005 19.657C20.2005 22.2079 22.3013 24.3087 24.8522 24.3087Z" fill="#0086E4"></path>
<path d="M16.2239 0C19.9752 0 23.1263 3.15112 23.1263 6.90244C23.1263 10.7288 19.9752 13.8799 16.1488 13.8799C12.3225 13.8799 9.2464 10.8038 9.2464 7.0525C9.2464 3.07609 12.3225 0 16.2239 0ZM20.8005 6.97747C20.8005 4.42657 18.6997 2.32582 16.1488 2.32582C13.5979 2.32582 11.4972 4.42657 11.5722 6.97747C11.5722 9.52837 13.5979 11.5541 16.2239 11.5541C18.6997 11.5541 20.8005 9.52837 20.8005 6.97747Z" fill="#0086E4"></path>
<path d="M40.4579 6.97747C40.4579 10.8789 37.3068 13.9549 33.4054 13.8799C29.6541 13.8799 26.578 10.6538 26.578 6.90245C26.578 3.07609 29.8041 0 33.6305 0C37.3818 0.0750266 40.4579 3.15112 40.4579 6.97747ZM28.9038 6.90245C28.9038 9.52838 30.9295 11.5541 33.4804 11.5541C36.0314 11.5541 38.0571 9.52838 38.1321 6.97747C38.1321 4.42657 36.1064 2.32582 33.4804 2.32582C31.0046 2.32582 28.9038 4.35154 28.9038 6.90245Z" fill="#0086E4"></path>
</svg>