<svg xmlns:xlink="http://www.w3.org/1999/xlink" width="53" height="53" viewBox="0 0 53 53" fill="none" xmlns="http://www.w3.org/2000/svg">
<path d="M51.9682 24.5607H46.7052V23.6835C46.7044 22.9858 46.4269 22.317 45.9336 21.8236C45.4403 21.3303 44.7714 21.0528 44.0737 21.052H42.3194C41.6217 21.0528 40.9529 21.3303 40.4595 21.8236C39.9662 22.317 39.6887 22.9858 39.6879 23.6835V24.5607H34.9027L34.7952 23.9508C34.6604 23.1829 34.2734 22.4819 33.6953 21.9589C33.1172 21.4358 32.3812 21.1205 31.6037 21.063L31.1625 19.2977H37.0564C37.9866 19.2966 38.8785 18.9266 39.5362 18.2688C40.194 17.6111 40.564 16.7192 40.5651 15.789V3.50866C40.564 2.57843 40.194 1.68659 39.5362 1.02882C38.8785 0.371042 37.9866 0.00104475 37.0564 0H16.0044C15.0742 0.00104475 14.1823 0.371042 13.5245 1.02882C12.8668 1.68659 12.4968 2.57843 12.4957 3.50866V15.789C12.4968 16.7192 12.8668 17.6111 13.5245 18.2688C14.1823 18.9266 15.0742 19.2966 16.0044 19.2977H21.8983L21.4571 21.063C20.6795 21.1205 19.9434 21.4359 19.3654 21.959C18.7873 22.4822 18.4003 23.1833 18.2656 23.9512L18.1581 24.5607H14.2501V21.9292C14.2501 21.6965 14.1576 21.4734 13.9931 21.3089C13.8286 21.1444 13.6055 21.052 13.3729 21.052H11.6186V18.4205C11.6186 18.1879 11.5261 17.9647 11.3616 17.8002C11.1971 17.6357 10.974 17.5433 10.7414 17.5433H2.84689C2.61425 17.5433 2.39114 17.6357 2.22664 17.8002C2.06214 17.9647 1.96973 18.1879 1.96973 18.4205V24.5607H1.09256C0.859921 24.5607 0.63681 24.6531 0.472309 24.8176C0.307809 24.9821 0.215393 25.2052 0.215393 25.4378V27.1922C0.216206 27.8898 0.493713 28.5587 0.987039 29.052C1.48037 29.5453 2.14923 29.8228 2.84689 29.8236H4.45595L1.41053 49.6218C1.3062 50.3058 1.47763 51.0033 1.88716 51.561C2.29669 52.1187 2.91083 52.4911 3.5947 52.5963C4.27857 52.7015 4.97625 52.531 5.53449 52.1222C6.09273 51.7134 6.46589 51.0997 6.572 50.416L9.73967 29.8236H17.2292L16.0178 36.6885C15.9932 36.8274 16.0026 36.9701 16.045 37.1047C16.0874 37.2392 16.1616 37.3615 16.2613 37.4612C16.349 37.549 17.5938 38.7673 19.8439 39.7947L17.4364 49.425C17.2758 50.0868 17.3834 50.7852 17.7357 51.3679C18.0881 51.9506 18.6566 52.3703 19.3172 52.5355C19.9778 52.7007 20.677 52.5979 21.2621 52.2496C21.8472 51.9012 22.2709 51.3357 22.4406 50.6762L22.7851 49.2984L26.5304 46.4898L30.2756 49.2987L30.6197 50.6754C30.7018 51.004 30.8478 51.3133 31.0494 51.5855C31.251 51.8576 31.5042 52.0875 31.7946 52.2618C32.085 52.4361 32.4069 52.5515 32.7419 52.6015C33.0769 52.6514 33.4184 52.6348 33.7471 52.5528C34.0757 52.4707 34.3849 52.3247 34.6571 52.1231C34.9293 51.9215 35.1591 51.6683 35.3334 51.3779C35.5078 51.0875 35.6232 50.7656 35.6731 50.4306C35.723 50.0956 35.7065 49.7541 35.6244 49.4255L33.2169 39.7952C35.467 38.7678 36.7116 37.5496 36.7995 37.4617C36.8992 37.3619 36.9734 37.2396 37.0158 37.1051C37.0582 36.9706 37.0675 36.8278 37.043 36.6889L35.8315 29.8236H43.3211L46.4892 50.4159C46.541 50.7551 46.6591 51.0809 46.8368 51.3745C47.0146 51.668 47.2484 51.9237 47.525 52.1268C47.8016 52.3299 48.1156 52.4765 48.4489 52.5582C48.7822 52.6399 49.1284 52.6551 49.4676 52.6029C49.8068 52.5507 50.1323 52.4322 50.4257 52.2541C50.719 52.076 50.9744 51.8418 51.1771 51.5649C51.3799 51.288 51.5261 50.9739 51.6073 50.6404C51.6886 50.307 51.7033 49.9608 51.6507 49.6217L48.6048 29.8236H50.2139C50.9116 29.8228 51.5804 29.5453 52.0737 29.052C52.5671 28.5587 52.8446 27.8898 52.8454 27.1922V25.4378C52.8454 25.2052 52.753 24.9821 52.5885 24.8176C52.424 24.6531 52.2009 24.5607 51.9682 24.5607ZM41.4422 23.6835C41.4425 23.4509 41.535 23.228 41.6994 23.0635C41.8639 22.8991 42.0868 22.8066 42.3194 22.8063H44.0737C44.3063 22.8066 44.5292 22.8991 44.6937 23.0635C44.8581 23.228 44.9506 23.4509 44.9509 23.6835V24.5607H41.4422V23.6835ZM14.2501 15.789V3.50866C14.2506 3.04356 14.4356 2.59765 14.7645 2.26877C15.0934 1.93989 15.5393 1.75488 16.0044 1.75433H37.0564C37.5215 1.75488 37.9674 1.93989 38.2963 2.26877C38.6252 2.59765 38.8102 3.04356 38.8107 3.50866V15.789C38.8102 16.2541 38.6252 16.7 38.2963 17.0289C37.9674 17.3578 37.5215 17.5428 37.0564 17.5433H16.0044C15.5393 17.5428 15.0934 17.3578 14.7645 17.0289C14.4356 16.7 14.2506 16.2541 14.2501 15.789ZM29.3542 19.2977L29.7928 21.052H23.268L23.7066 19.2977H29.3542ZM9.86423 19.2977V21.052H3.72406V19.2977H9.86423ZM3.72406 22.8063H12.4957V24.5607H3.72406V22.8063ZM4.83751 50.1492C4.82041 50.2604 4.78158 50.3672 4.72323 50.4634C4.66488 50.5595 4.58816 50.6433 4.49744 50.7098C4.31423 50.8442 4.08514 50.9003 3.86057 50.8658C3.636 50.8312 3.43435 50.7089 3.29997 50.5257C3.16559 50.3425 3.1095 50.1134 3.14403 49.8888L6.231 29.8236H7.96461L4.83751 50.1492ZM2.84689 28.0693C2.61433 28.0691 2.39138 27.9766 2.22693 27.8121C2.06249 27.6477 1.96999 27.4247 1.96973 27.1922V26.315H17.8484L17.5388 28.0693H2.84689ZM20.445 50.7011C20.3096 50.8066 20.1447 50.8673 19.9731 50.8746C19.8016 50.8819 19.6321 50.8354 19.4882 50.7418C19.3443 50.6482 19.2332 50.512 19.1705 50.3522C19.1077 50.1924 19.0963 50.017 19.138 49.8504L21.4915 40.4363C22.0149 40.6068 22.5469 40.75 23.0852 40.8652L20.7388 50.2518C20.6947 50.4305 20.5911 50.589 20.445 50.7011ZM28.2356 41.14L28.6309 42.7211L26.5304 44.2969L24.4297 42.7214L24.8244 41.1403C25.9584 41.2561 27.1013 41.2561 28.2353 41.1403L28.2356 41.14ZM23.4603 46.5995L23.9683 44.5678L25.0685 45.3933L23.4603 46.5995ZM27.9926 45.3933L29.0931 44.568L29.6005 46.5995L27.9926 45.3933ZM33.9229 49.8508C33.9648 50.0175 33.9534 50.1932 33.8905 50.3532C33.8276 50.5131 33.7162 50.6495 33.572 50.7431C33.4278 50.8366 33.258 50.8828 33.0862 50.8751C32.9145 50.8674 32.7495 50.8062 32.6142 50.7001C32.4688 50.5877 32.3658 50.4291 32.3222 50.2505L29.9758 40.8649C30.5141 40.7496 31.0461 40.6065 31.5695 40.4359L33.9229 49.8508ZM26.5304 39.4725C21.8748 39.4725 18.8011 37.3035 17.831 36.5082L19.9932 24.2557C20.0644 23.8494 20.2768 23.4812 20.5928 23.2161C20.9089 22.9509 21.3083 22.8058 21.7209 22.8063H31.3399C31.7524 22.8058 32.1519 22.9509 32.468 23.2161C32.784 23.4812 32.9964 23.8494 33.0676 24.2557L35.2298 36.508C34.2575 37.3049 31.1841 39.4725 26.5304 39.4725ZM49.9168 49.8888C49.9513 50.1134 49.8953 50.3425 49.7609 50.5257C49.6265 50.709 49.4249 50.8313 49.2003 50.8659C48.9758 50.9004 48.7467 50.8444 48.5634 50.71C48.3802 50.5757 48.2578 50.374 48.2233 50.1495L45.0962 29.8236H46.8298L49.9168 49.8888ZM51.0911 27.1922C51.0908 27.4247 50.9983 27.6477 50.8339 27.8121C50.6694 27.9766 50.4465 28.0691 50.2139 28.0693H35.522L35.2124 26.315H51.0911V27.1922Z" fill="#0086E4"></path>
<path d="M28.391 6.5465L23.4291 11.5084L24.6697 12.749L29.6316 7.78707L28.391 6.5465Z" fill="#0086E4"></path>
<path d="M29.6316 10.2699L27.1505 12.751L28.3911 13.9916L30.8722 11.5105L29.6316 10.2699Z" fill="#0086E4"></path>
<path d="M24.6698 5.3064L22.1887 7.78748L23.4293 9.02805L25.9103 6.54697L24.6698 5.3064Z" fill="#0086E4"></path>
<path d="M42.3192 16.6664V19.2979H44.0735V17.5436H48.4593V22.8066H50.2136V16.6664C50.2136 16.4338 50.1212 16.2107 49.9567 16.0462C49.7922 15.8817 49.5691 15.7893 49.3365 15.7893H48.7056L49.3103 13.3705L47.6084 12.9451L46.8973 15.7893H45.6355L44.9244 12.9451L43.2225 13.3705L43.8272 15.7893H43.1963C42.9637 15.7893 42.7406 15.8817 42.5761 16.0462C42.4116 16.2107 42.3192 16.4338 42.3192 16.6664Z" fill="#0086E4"></path>
</svg>