<svg xmlns:xlink="http://www.w3.org/1999/xlink" width="45" height="45" viewBox="0 0 45 45" fill="none" xmlns="http://www.w3.org/2000/svg">
<path d="M39.9519 28.4109V12.3509C39.9519 11.8522 39.4802 11.5076 38.9036 11.5076H34.8468C34.2703 11.5076 33.7671 11.8522 33.7671 12.3509V26.8421C33.0962 26.8602 32.4253 26.9327 31.7754 27.0688V17.0846C31.7754 16.5858 31.2827 16.2231 30.7062 16.2231H26.6494C26.0729 16.2231 25.5907 16.5767 25.5907 17.0846V30.6235C24.3432 32.1379 23.6723 33.9607 23.6828 35.8287C23.6828 40.7982 28.3371 44.8245 34.0711 44.8245C39.8156 44.8245 44.4699 40.7982 44.4699 35.8378C44.4699 32.8634 42.7822 30.0885 39.9519 28.4109ZM35.8636 13.3212H37.8553V27.4496C37.2159 27.232 36.545 27.0688 35.8636 26.9781V13.3212ZM27.6872 18.0367H29.6789V27.6945C28.9766 27.9756 28.3057 28.3202 27.6872 28.7283V18.0367ZM41.2203 39.4833C39.7213 41.6687 37.0063 43.0018 34.0816 43.0018C29.5007 43.0018 25.7898 39.7825 25.7898 35.8287C25.7898 32.9269 27.813 30.3061 30.9158 29.1998C31.0416 29.1817 31.1569 29.1363 31.2618 29.0819C32.1633 28.7917 33.1277 28.6467 34.0921 28.6467C34.3122 28.6467 34.5219 28.6557 34.742 28.6739H34.7525C36.0104 28.7555 37.2369 29.091 38.3166 29.6532C42.2579 31.6755 43.5579 36.0736 41.2203 39.4833Z" fill="#0086E4"></path>
<path d="M34.092 35.0945C33.3582 35.0945 32.7712 34.5867 32.7712 33.9519C32.7712 33.3172 33.3478 32.8093 34.0815 32.8003C34.8153 32.8003 35.4024 33.3172 35.4024 33.9429C35.4024 34.4416 35.8741 34.8497 36.4506 34.8497C37.0377 34.8497 37.5094 34.4507 37.5199 33.9429C37.5199 32.7277 36.6603 31.6305 35.3499 31.1861V30.4334C35.3499 29.9347 34.8782 29.5266 34.3017 29.5266C33.7251 29.5266 33.2534 29.9347 33.2534 30.4334V31.0864C31.4294 31.4944 30.3288 33.1086 30.8005 34.6865C31.1779 35.9923 32.5301 36.8991 34.0815 36.8991C34.8048 36.8991 35.3919 37.416 35.3919 38.0417C35.3919 38.6675 34.7944 39.1753 34.0711 39.1753C33.3478 39.1753 32.7607 38.6584 32.7607 38.0327C32.7607 37.5339 32.289 37.1258 31.7125 37.1258C31.1359 37.1258 30.6747 37.5248 30.6852 38.0236V38.0327C30.6957 39.3748 31.7439 40.5537 33.2429 40.8892V41.2973C33.2429 41.796 33.7147 42.2041 34.2912 42.2041C34.8677 42.2041 35.3395 41.796 35.3395 41.2973V40.7985C37.1005 40.2 37.9601 38.4861 37.2788 36.9717C36.7651 35.8381 35.4967 35.0945 34.092 35.0945Z" fill="#0086E4"></path>
<path d="M14.2695 23.4783H10.1813C9.60477 23.4783 9.13306 23.8863 9.13306 24.3851V38.6223C9.13306 39.1211 9.60477 39.5292 10.1813 39.5292H14.2695C14.8461 39.5292 15.3178 39.1211 15.3178 38.6223V24.3851C15.3178 23.8863 14.8461 23.4783 14.2695 23.4783ZM13.2213 37.8062H11.2296V25.2919H13.2213V37.8062Z" fill="#0086E4"></path>
<path d="M22.5508 21.3923H18.4626C17.886 21.3923 17.4143 21.8004 17.4143 22.2992V38.7128C17.4143 39.2115 17.886 39.6196 18.4626 39.6196H22.5508C23.1273 39.6196 23.5991 39.2115 23.5991 38.7128V22.2992C23.5991 21.8004 23.1273 21.3923 22.5508 21.3923ZM21.5025 37.806H19.5108V23.206H21.5025V37.806Z" fill="#0086E4"></path>
<path d="M5.9883 31.2764H1.90007C1.32353 31.2764 0.851807 31.6844 0.851807 32.1832V38.6217C0.851807 39.1204 1.32353 39.5285 1.90007 39.5285H5.9883C6.56484 39.5285 7.03656 39.1204 7.03656 38.6217V32.1832C7.03656 31.6844 6.56484 31.2764 5.9883 31.2764ZM4.94003 37.8055H2.94833V33.09H4.94003V37.8055Z" fill="#0086E4"></path>
<path d="M39.7947 0L32.6246 0.0090683C32.0481 0 31.5763 0.408073 31.5659 0.90683C31.5554 1.40559 32.0271 1.81366 32.6036 1.82273C32.6141 1.82273 32.6141 1.82273 32.6246 1.82273L37.2684 1.81366L25.8947 11.6165L21.9218 8.20681C21.7227 8.04358 21.4501 7.96197 21.1776 7.97103C20.905 7.96197 20.6325 8.04358 20.4333 8.20681L0.306617 25.6179C-0.102206 25.9716 -0.102206 26.5429 0.306617 26.8875C0.505787 27.0598 0.767853 27.1505 1.05088 27.1505C1.33392 27.1505 1.59598 27.0598 1.79515 26.8875L21.188 10.1112L25.161 13.5752C25.3496 13.7566 25.6222 13.8564 25.9052 13.8654C26.1883 13.8564 26.4503 13.7475 26.6495 13.5752L38.7465 3.10136L38.736 7.13675C38.736 7.64457 39.1972 8.05265 39.7842 8.07078C40.3713 8.06172 40.8325 7.64457 40.8325 7.13675L40.843 0.915898C40.843 0.417142 40.3713 0 39.7947 0Z" fill="#0086E4"></path>
</svg>