<svg width="253" height="55" viewBox="0 0 253 55" fill="none" xmlns="http://www.w3.org/2000/svg">
<path d="M15.1984 31.7863C11.5642 31.7863 8.07839 31.7863 4.59876 31.7863C4.32682 33.3685 5.38989 35.1053 6.86085 35.575C8.58522 36.125 9.68532 35.5317 10.6927 33.4489C12.0525 33.6714 13.4369 33.9001 14.8955 34.1411C14.4567 35.5688 13.7027 36.6751 12.5902 37.5466C8.77061 40.5379 2.35523 38.8877 0.698854 34.4069C-0.308571 31.6874 -0.222046 28.9124 0.92753 26.2239C1.55794 24.7467 2.63337 23.628 4.07343 22.8926C8.87569 20.4327 14.3022 23.3561 14.9697 28.7579C15.0933 29.7406 15.1242 30.7233 15.1984 31.7863ZM10.8473 29.0793C10.804 26.7183 9.5061 25.3462 7.46653 25.4266C5.97702 25.4822 4.45044 26.9284 4.61113 29.0793C6.68161 29.0793 8.76442 29.0793 10.8473 29.0793Z" fill="black"/>
<path d="M32.6521 21.8544V25.2784H29.7164V31.8174C29.7164 33.14 29.7411 33.9126 29.8029 34.1351C29.8585 34.3514 29.9883 34.5368 30.1861 34.679C30.3839 34.8211 30.6249 34.8953 30.9092 34.8953C31.3048 34.8953 31.8795 34.7593 32.6336 34.4812L32.9982 37.8125C31.997 38.2389 30.8659 38.4553 29.6051 38.4553C28.8326 38.4553 28.1341 38.3255 27.5099 38.0659C26.8857 37.8063 26.4345 37.4726 26.144 37.0585C25.8535 36.6444 25.6558 36.0881 25.5383 35.3835C25.4456 34.8829 25.4024 33.8755 25.4024 32.3551V25.2784H23.4308V21.8544H25.4024V18.0101L29.7102 17.973V21.8482H32.6521V21.8544Z" fill="black"/>
<path d="M39.7412 38.0844H35.4457V21.8544H39.4321V24.1597C40.112 23.0719 40.7301 22.3488 41.274 22.0027C41.8179 21.6566 42.4359 21.4835 43.1281 21.4835C44.1046 21.4835 45.0503 21.7555 45.9526 22.2932L44.6238 26.0386C43.9007 25.5688 43.227 25.334 42.6089 25.334C42.0094 25.334 41.4965 25.5009 41.0824 25.8284C40.6621 26.1622 40.3345 26.7555 40.0997 27.627C39.8586 28.4922 39.7412 30.3093 39.7412 33.0658V38.0844Z" fill="black"/>
<path d="M57.2135 32.9174L61.4904 33.6344C60.9404 35.2042 60.0689 36.3971 58.8823 37.2191C57.6956 38.0411 56.2123 38.449 54.4261 38.449C51.6016 38.449 49.5126 37.5281 48.159 35.6801C47.0898 34.203 46.5521 32.3365 46.5521 30.0868C46.5521 27.3982 47.2567 25.2907 48.6597 23.7641C50.0689 22.2437 51.8426 21.4773 53.9935 21.4773C56.41 21.4773 58.3136 22.2746 59.7104 23.8692C61.1072 25.4637 61.7748 27.905 61.713 31.1992H50.9588C50.9897 32.4724 51.3358 33.4613 51.9972 34.1721C52.6585 34.8828 53.4867 35.2351 54.4756 35.2351C55.1492 35.2351 55.7117 35.0497 56.1752 34.6851C56.6326 34.3266 56.9787 33.7333 57.2135 32.9174ZM57.4546 28.5787C57.4237 27.3364 57.1023 26.3908 56.4904 25.7418C55.8785 25.0929 55.1369 24.7715 54.2592 24.7715C53.3198 24.7715 52.5472 25.1114 51.9354 25.7975C51.3235 26.4773 51.0206 27.4044 51.033 28.5787H57.4546Z" fill="black"/>
<path d="M64.8959 21.8543H68.8576V24.0731C70.2729 22.3487 71.9602 21.4896 73.9133 21.4896C74.9516 21.4896 75.854 21.7059 76.6203 22.1324C77.3867 22.5588 78.0109 23.2078 78.4992 24.0731C79.21 23.2078 79.9825 22.5588 80.8045 22.1324C81.6265 21.7059 82.5104 21.4896 83.4498 21.4896C84.6426 21.4896 85.65 21.7307 86.4782 22.2127C87.3002 22.6948 87.9183 23.4056 88.3262 24.345C88.6229 25.0372 88.7712 26.1559 88.7712 27.7072V38.0843H84.4758V28.8074C84.4758 27.2004 84.3274 26.1559 84.0308 25.6924C83.6352 25.0805 83.0233 24.7777 82.1951 24.7777C81.5956 24.7777 81.027 24.9631 80.5017 25.3277C79.9702 25.6924 79.587 26.2301 79.3521 26.9408C79.1173 27.6516 78.9998 28.7703 78.9998 30.2969V38.0905H74.7044V29.1967C74.7044 27.6145 74.6302 26.6009 74.4757 26.1374C74.3212 25.68 74.0863 25.3401 73.7649 25.1114C73.4436 24.8889 73.0109 24.7777 72.4608 24.7777C71.7995 24.7777 71.2 24.9569 70.6747 25.3154C70.1432 25.6738 69.7661 26.1868 69.5374 26.8605C69.3088 27.5342 69.1913 28.6467 69.1913 30.2103V38.0967H64.8959V21.8543V21.8543Z" fill="black"/>
<path d="M102.449 32.9174L106.726 33.6344C106.176 35.2042 105.304 36.3971 104.117 37.2191C102.931 38.0411 101.447 38.449 99.6613 38.449C96.8368 38.449 94.7478 37.5281 93.3943 35.6801C92.325 34.203 91.7874 32.3365 91.7874 30.0868C91.7874 27.3982 92.4919 25.2907 93.8949 23.7641C95.3041 22.2437 97.0779 21.4773 99.2287 21.4773C101.645 21.4773 103.549 22.2746 104.946 23.8692C106.342 25.4637 107.01 27.905 106.948 31.1992H96.2003C96.2312 32.4724 96.5773 33.4613 97.2386 34.1721C97.8999 34.8828 98.7281 35.2351 99.717 35.2351C100.391 35.2351 100.953 35.0497 101.417 34.6851C101.868 34.3266 102.214 33.7333 102.449 32.9174ZM102.696 28.5787C102.665 27.3364 102.344 26.3908 101.732 25.7418C101.12 25.0929 100.378 24.7715 99.5006 24.7715C98.5612 24.7715 97.7887 25.1114 97.1768 25.7975C96.5649 26.4773 96.2621 27.4044 96.2744 28.5787H102.696Z" fill="black"/>
<path d="M120.867 32.1387L123.574 32.4909C123.277 34.3575 122.523 35.8161 121.306 36.8667C120.088 37.9236 118.592 38.449 116.818 38.449C114.6 38.449 112.814 37.7258 111.46 36.2734C110.113 34.821 109.433 32.7382 109.433 30.0311C109.433 28.282 109.723 26.7431 110.304 25.4328C110.885 24.1225 111.769 23.1336 112.956 22.4785C114.142 21.8234 115.434 21.4896 116.831 21.4896C118.592 21.4896 120.032 21.9346 121.157 22.8246C122.276 23.7146 122.999 24.9816 123.314 26.6256L120.638 27.0397C120.385 25.952 119.933 25.1299 119.284 24.5799C118.636 24.0298 117.857 23.7517 116.936 23.7517C115.551 23.7517 114.427 24.2461 113.561 25.2412C112.696 26.2363 112.263 27.8061 112.263 29.9569C112.263 32.1387 112.684 33.7209 113.518 34.7098C114.352 35.6986 115.446 36.1931 116.788 36.1931C117.869 36.1931 118.772 35.8593 119.495 35.198C120.218 34.5367 120.669 33.5169 120.867 32.1387Z" fill="#0286E3"/>
<path d="M124.903 29.9694C124.903 26.9656 125.737 24.7345 127.412 23.2882C128.809 22.0892 130.508 21.4835 132.517 21.4835C134.748 21.4835 136.571 22.2128 137.987 23.6776C139.402 25.1424 140.113 27.1572 140.113 29.7345C140.113 31.8235 139.798 33.4676 139.173 34.6604C138.549 35.8594 137.634 36.7865 136.435 37.4478C135.236 38.1091 133.932 38.4429 132.517 38.4429C130.242 38.4429 128.407 37.7136 127.01 36.255C125.601 34.8087 124.903 32.7073 124.903 29.9694ZM127.727 29.9694C127.727 32.046 128.178 33.6035 129.087 34.6357C129.995 35.6678 131.132 36.187 132.511 36.187C133.877 36.187 135.014 35.6678 135.916 34.6295C136.825 33.5912 137.276 32.0089 137.276 29.8767C137.276 27.868 136.819 26.3476 135.91 25.3154C134.995 24.2833 133.864 23.7641 132.511 23.7641C131.132 23.7641 129.995 24.2771 129.087 25.3093C128.178 26.3352 127.727 27.8927 127.727 29.9694Z" fill="#0286E3"/>
<path d="M143.333 38.0843V21.8543H145.793V24.1287C146.3 23.3314 146.979 22.6948 147.826 22.2127C148.673 21.7307 149.637 21.4896 150.712 21.4896C151.911 21.4896 152.9 21.7368 153.667 22.2375C154.433 22.7381 154.977 23.4365 155.292 24.3327C156.578 22.4352 158.246 21.4896 160.305 21.4896C161.912 21.4896 163.154 21.9346 164.019 22.8246C164.884 23.7146 165.317 25.0867 165.317 26.9408V38.0843H162.579V27.8617C162.579 26.7616 162.492 25.9705 162.313 25.4822C162.134 25.0002 161.813 24.6108 161.343 24.3141C160.873 24.0175 160.323 23.8691 159.693 23.8691C158.549 23.8691 157.604 24.2461 156.85 25.0063C156.096 25.7665 155.719 26.9779 155.719 28.6528V38.0843H152.968V27.5403C152.968 26.3166 152.746 25.4019 152.295 24.79C151.843 24.1781 151.114 23.8753 150.094 23.8753C149.322 23.8753 148.605 24.0793 147.95 24.4872C147.295 24.8951 146.819 25.4884 146.522 26.2733C146.225 27.0583 146.077 28.1893 146.077 29.6664V38.0843H143.333V38.0843Z" fill="#0286E3"/>
<path d="M169.402 38.0843V21.8543H171.862V24.1287C172.369 23.3314 173.049 22.6948 173.896 22.2127C174.742 21.7307 175.706 21.4896 176.782 21.4896C177.981 21.4896 178.97 21.7368 179.736 22.2375C180.503 22.7381 181.046 23.4365 181.362 24.3327C182.647 22.4352 184.316 21.4896 186.374 21.4896C187.981 21.4896 189.223 21.9346 190.089 22.8246C190.954 23.7146 191.386 25.0867 191.386 26.9408V38.0843H188.648V27.8617C188.648 26.7616 188.562 25.9705 188.383 25.4822C188.203 25.0002 187.882 24.6108 187.412 24.3141C186.943 24.0175 186.393 23.8691 185.762 23.8691C184.619 23.8691 183.673 24.2461 182.919 25.0063C182.165 25.7665 181.788 26.9779 181.788 28.6528V38.0843H179.038V27.5403C179.038 26.3166 178.815 25.4019 178.364 24.79C177.913 24.1781 177.184 23.8753 176.164 23.8753C175.391 23.8753 174.674 24.0793 174.019 24.4872C173.364 24.8951 172.888 25.4884 172.592 26.2733C172.295 27.0583 172.146 28.1893 172.146 29.6664V38.0843H169.402V38.0843Z" fill="#0286E3"/>
<path d="M206.591 32.8556L209.434 33.2079C208.982 34.8704 208.154 36.156 206.943 37.0769C205.731 37.9916 204.18 38.4551 202.295 38.4551C199.922 38.4551 198.037 37.7258 196.646 36.2611C195.255 34.7963 194.557 32.7505 194.557 30.1114C194.557 27.3797 195.262 25.2597 196.665 23.7517C198.074 22.2436 199.897 21.4896 202.134 21.4896C204.304 21.4896 206.077 22.2313 207.456 23.7084C208.834 25.1856 209.52 27.2622 209.52 29.9446C209.52 30.1053 209.514 30.3525 209.502 30.6801H197.4C197.499 32.4662 198.006 33.8259 198.914 34.7777C199.823 35.7234 200.954 36.1992 202.307 36.1992C203.315 36.1992 204.174 35.9335 204.891 35.402C205.602 34.8643 206.17 34.0175 206.591 32.8556ZM197.555 28.4118H206.615C206.492 27.0459 206.146 26.0199 205.577 25.3401C204.699 24.2832 203.562 23.7517 202.171 23.7517C200.911 23.7517 199.848 24.172 198.982 25.0187C198.123 25.8592 197.647 26.9903 197.555 28.4118Z" fill="#0286E3"/>
<path d="M212.851 38.0843V21.8543H215.33V24.3141C215.96 23.1645 216.547 22.4043 217.079 22.0397C217.617 21.675 218.204 21.4896 218.846 21.4896C219.774 21.4896 220.713 21.7863 221.671 22.3734L220.725 24.926C220.052 24.5304 219.378 24.3327 218.711 24.3327C218.111 24.3327 217.567 24.5119 217.091 24.8765C216.609 25.235 216.269 25.7418 216.065 26.3846C215.762 27.3611 215.608 28.4303 215.608 29.5923V38.0905H212.851V38.0843Z" fill="#0286E3"/>
<path d="M233.896 32.1387L236.603 32.4909C236.306 34.3575 235.552 35.8161 234.335 36.8667C233.117 37.9236 231.622 38.449 229.848 38.449C227.629 38.449 225.843 37.7258 224.489 36.2734C223.142 34.821 222.462 32.7382 222.462 30.0311C222.462 28.282 222.753 26.7431 223.334 25.4328C223.914 24.1225 224.798 23.1336 225.985 22.4785C227.172 21.8234 228.463 21.4896 229.86 21.4896C231.622 21.4896 233.062 21.9346 234.186 22.8246C235.305 23.7146 236.028 24.9816 236.343 26.6256L233.667 27.0397C233.414 25.952 232.963 25.1299 232.314 24.5799C231.665 24.0298 230.886 23.7517 229.965 23.7517C228.581 23.7517 227.456 24.2461 226.591 25.2412C225.725 26.2363 225.293 27.8061 225.293 29.9569C225.293 32.1387 225.713 33.7209 226.547 34.7098C227.382 35.6986 228.476 36.1931 229.817 36.1931C230.898 36.1931 231.801 35.8593 232.524 35.198C233.247 34.5367 233.704 33.5169 233.896 32.1387Z" fill="#0286E3"/>
<path d="M250.07 32.8556L252.913 33.2079C252.462 34.8704 251.634 36.156 250.423 37.0769C249.211 37.9916 247.66 38.4551 245.775 38.4551C243.402 38.4551 241.517 37.7258 240.126 36.2611C238.735 34.7963 238.037 32.7505 238.037 30.1114C238.037 27.3797 238.742 25.2597 240.145 23.7517C241.554 22.2436 243.377 21.4896 245.614 21.4896C247.784 21.4896 249.557 22.2313 250.936 23.7084C252.314 25.1856 253 27.2622 253 29.9446C253 30.1053 252.994 30.3525 252.981 30.6801H240.88C240.979 32.4662 241.486 33.8259 242.394 34.7777C243.303 35.7234 244.434 36.1992 245.787 36.1992C246.795 36.1992 247.654 35.9335 248.371 35.402C249.088 34.8643 249.65 34.0175 250.07 32.8556ZM241.035 28.4118H250.095C249.972 27.0459 249.625 26.0199 249.057 25.3401C248.179 24.2832 247.042 23.7517 245.651 23.7517C244.391 23.7517 243.327 24.172 242.462 25.0187C241.603 25.8592 241.127 26.9903 241.035 28.4118Z" fill="#0286E3"/>
<path d="M235.713 42.0894C235.355 42.1821 234.965 42.1635 234.866 42.3304C234.743 42.5282 234.767 42.9484 234.91 43.1339C235.021 43.2884 235.404 43.2328 235.713 43.2822C235.713 42.8557 235.713 42.5529 235.713 42.0894Z" fill="white"/>
<path d="M28.2701 54.574C25.1675 48.5727 21.3541 42.5714 18.2453 36.5639C17.8189 36.7061 17.8127 37.0584 17.6953 37.318C16.249 40.5936 14.8028 43.8631 13.3936 47.1512C13.1649 47.6827 12.9054 47.8434 12.3368 47.8248C10.736 47.7754 9.12907 47.8063 7.38617 47.8063C8.05366 45.7605 8.86949 44.0609 9.58643 42.3304C11.0574 38.7704 12.5407 35.2166 14.0488 31.669C14.2713 31.156 14.1786 30.7851 13.8943 30.3463C11.3973 26.4526 8.93129 22.5465 6.41582 18.659C6.03263 18.0718 6.05734 17.8122 6.71247 17.4909C8.18344 16.7801 9.62351 16.0075 11.0512 15.2226C11.5271 14.9568 11.7496 15.031 12.0401 15.4945C13.7521 18.2511 15.495 20.9828 17.2317 23.7208C17.3059 23.8321 17.3924 23.9371 17.479 24.0484C17.8127 23.8321 17.8992 23.486 18.0414 23.1893C20.5198 18.0966 22.992 13.0038 25.4642 7.90487C25.6496 7.5155 25.835 7.18794 26.2738 7.00252C28.5544 6.03836 30.8165 5.04947 33.0848 4.07295C33.2269 4.01115 33.3629 3.85663 33.6225 3.99878C33.1589 5.00621 32.7016 6.01364 32.2319 7.02106C28.8758 14.2214 25.5198 21.4279 22.1452 28.6158C21.8918 29.1597 21.9104 29.5552 22.207 30.0806C26.6694 37.9855 31.107 45.8965 35.5508 53.8138C35.6868 54.0548 35.9093 54.2649 35.8474 54.5802C33.0909 54.574 31.0328 54.574 28.2701 54.574Z" fill="#0286E3"/>
<path d="M29.5928 0.00617712C30.7115 0.939435 31.824 1.87887 32.9488 2.80595C33.3691 3.15824 33.3629 3.34366 32.8129 3.57234C30.866 4.38817 28.95 5.25962 27.0155 6.10635C26.8425 6.18051 26.6818 6.32885 26.3666 6.19906C26.7807 5.36469 27.2009 4.5365 27.6088 3.70213C28.2145 2.46603 28.9562 1.30409 29.4259 0C29.4815 0.00618052 29.5372 0.00617712 29.5928 0.00617712Z" fill="#0286E3"/>
</svg>
