<svg xmlns:xlink="http://www.w3.org/1999/xlink" width="54" height="42" viewBox="0 0 54 42" fill="none" xmlns="http://www.w3.org/2000/svg">
<path d="M9.06354 26.742C8.92668 27.8809 8.78982 29.0198 8.65296 30.1131C8.28799 33.3476 7.96865 36.6276 7.6493 39.862C7.51244 41.0009 6.91937 41.4109 5.50513 41.3654C4.41023 41.3198 3.99964 40.8643 3.99964 39.6798C4.13651 34.6687 4.27337 29.6576 4.41023 24.6009C4.45585 22.5053 4.41023 20.4098 4.27337 18.2686C4.13651 18.7242 3.95402 19.1342 3.86278 19.5898C3.4522 21.2298 3.04161 22.8698 2.67664 24.5098C2.49416 25.3298 1.85547 25.7398 1.0343 25.6031C0.213125 25.4664 -0.10622 24.9198 0.0306417 24.1453C0.395607 21.7309 0.806194 19.3164 1.2624 16.9475C1.58175 15.3986 1.94671 13.8497 2.40292 12.3009C2.81351 10.8431 3.81716 9.97751 5.2314 9.4764C7.92303 8.56529 10.6603 8.56529 13.3519 9.4764C14.7205 9.93196 15.7242 10.8431 16.1804 12.3009C16.591 13.7131 17.0015 15.1253 17.4578 16.6286C18.1877 16.1731 18.9176 15.7175 19.6932 15.3075C20.0125 15.1253 20.56 14.8975 20.7424 15.0342C21.5636 15.6264 22.0198 15.0342 22.5673 14.6242C25.0764 12.7564 27.6312 10.8886 30.1403 8.97529C30.3684 8.79306 30.6421 8.61084 30.9159 8.47417C30.9615 8.51973 31.0527 8.61084 31.0984 8.6564C30.8702 8.88418 30.6878 9.11195 30.4597 9.29418C27.8137 11.2986 25.1677 13.2575 22.5217 15.2164C22.1111 15.5353 21.7461 15.8086 21.7917 16.4464C21.7917 16.8109 21.4724 17.2664 21.153 17.5398C20.2862 18.2686 19.3282 18.8609 18.4614 19.5898C17.4121 20.5009 15.8154 20.4098 14.903 19.0431C14.7205 18.7242 14.4924 18.4509 14.0362 18.2231C14.0362 20.1364 13.9906 22.0498 14.0362 23.9631C14.1274 28.0631 14.3099 32.1631 14.4012 36.2631C14.4468 37.402 14.4468 38.5865 14.4924 39.7254C14.538 40.8643 14.0818 41.4109 12.9413 41.502C11.7552 41.5932 11.0252 41.0465 10.8884 39.9987C10.4322 35.8076 9.97596 31.662 9.56537 27.4709C9.51975 27.1976 9.42851 26.9698 9.38289 26.742C9.29165 26.742 9.20041 26.742 9.06354 26.742Z" fill="#0086E4"></path>
<path d="M18.3703 6.42423C17.9141 6.42423 17.5491 6.42423 17.1842 6.42423C16.9104 4.69311 18.0053 3.23533 19.6477 3.00755C20.0126 2.96199 20.4232 2.96199 20.7882 2.96199C30.6423 2.96199 40.4507 2.96199 50.3048 2.96199C52.9052 2.96199 54.0001 4.05533 54.0001 6.60645C54.0001 11.2076 54.0001 15.8543 54.0001 20.4554C54.0001 22.3232 54.0001 24.1909 54.0001 26.0132C53.9545 27.9265 52.7227 29.2021 50.8066 29.2021C40.6332 29.2021 30.4142 29.2021 20.2407 29.2021C18.2791 29.2021 17.0473 27.881 17.1385 25.9221C17.5491 25.9221 17.9141 25.9221 18.3247 25.9221C18.7809 27.5621 19.1458 27.8354 20.8794 27.8354C30.6423 27.8354 40.4051 27.8354 50.2136 27.8354C52.1296 27.8354 52.6315 27.2887 52.6315 25.3754C52.6315 19.1343 52.6315 12.8476 52.6315 6.60645C52.6315 4.87533 52.084 4.32866 50.3048 4.32866C40.4507 4.32866 30.551 4.32866 20.6969 4.32866C19.1002 4.37422 18.644 4.78422 18.3703 6.42423Z" fill="#0086E4"></path>
<path d="M13.5799 4.23747C13.6255 6.60637 11.7095 8.51971 9.33719 8.51971C7.01054 8.51971 5.09447 6.69748 5.04884 4.32859C4.9576 2.00525 6.87367 0.0463526 9.24595 0.000796955C11.6182 -0.0447587 13.5343 1.86858 13.5799 4.23747Z" fill="#0086E4"></path>
<path d="M40.8155 41.5018C37.1202 41.5018 33.5161 41.5018 29.9121 41.5018C29.7296 38.5862 31.2807 36.7184 34.2461 36.5362C39.3556 36.1717 40.1768 37.7662 40.8155 41.5018Z" fill="#0086E4"></path>
<path d="M42.8228 41.5018C43.279 37.8118 44.7845 36.4451 48.3429 36.4906C51.947 36.4906 53.4524 37.8573 53.8174 41.5018C50.1677 41.5018 46.5181 41.5018 42.8228 41.5018Z" fill="#0086E4"></path>
<path d="M27.7679 41.502C24.0726 41.502 20.4686 41.502 16.8189 41.502C17.2751 37.7664 18.3244 36.6731 21.8828 36.4453C25.7149 36.2631 27.4029 37.7664 27.7679 41.502Z" fill="#0086E4"></path>
<path d="M35.3414 36.1721C33.6534 36.1721 32.376 34.8966 32.3304 33.211C32.3304 31.5254 33.6534 30.2043 35.2957 30.2043C36.9381 30.2043 38.3067 31.5254 38.3067 33.211C38.3523 34.8966 37.0293 36.1721 35.3414 36.1721Z" fill="#0086E4"></path>
<path d="M22.3391 36.2174C20.6511 36.2174 19.3281 34.8963 19.3281 33.2563C19.3281 31.6163 20.6967 30.2496 22.3391 30.2496C24.0271 30.2496 25.3044 31.5707 25.3501 33.2563C25.3044 34.8963 24.0271 36.1719 22.3391 36.2174Z" fill="#0086E4"></path>
<path d="M51.3084 33.2566C51.3084 34.9421 49.9854 36.2177 48.2974 36.1721C46.655 36.1721 45.2864 34.8055 45.332 33.1655C45.3777 31.5254 46.7463 30.2043 48.3886 30.2043C50.0766 30.2499 51.354 31.571 51.3084 33.2566Z" fill="#0086E4"></path>
</svg>