<svg xmlns:xlink="http://www.w3.org/1999/xlink" width="55" height="44" viewBox="0 0 55 44" fill="none" xmlns="http://www.w3.org/2000/svg">
<path d="M9.23144 28.0032C9.09204 29.1632 8.95265 30.3232 8.81325 31.4368C8.44152 34.7311 8.11626 38.0719 7.791 41.3663C7.6516 42.5263 7.04755 42.9439 5.60711 42.8975C4.49193 42.8511 4.07374 42.3871 4.07374 41.1807C4.21313 36.0767 4.35253 30.9728 4.49193 25.8224C4.53839 23.688 4.49193 21.5537 4.35253 19.3729C4.21313 19.8369 4.02727 20.2545 3.93434 20.7185C3.51615 22.3889 3.09795 24.0592 2.72623 25.7296C2.54036 26.5648 1.88984 26.9824 1.05346 26.8432C0.217073 26.704 -0.108188 26.1472 0.0312093 25.3584C0.402936 22.8993 0.821128 20.4401 1.28579 18.0273C1.61105 16.4497 1.98277 14.8721 2.44743 13.2945C2.86562 11.8098 3.88787 10.9282 5.32831 10.4178C8.0698 9.48977 10.8577 9.48977 13.5992 10.4178C14.9932 10.8818 16.0154 11.8098 16.4801 13.2945C16.8983 14.7329 17.3165 16.1713 17.7812 17.7025C18.5246 17.2385 19.2681 16.7745 20.058 16.3569C20.3832 16.1713 20.9408 15.9393 21.1267 16.0785C21.9631 16.6817 22.4277 16.0785 22.9853 15.6609C25.5409 13.7585 28.143 11.8562 30.6986 9.90737C30.931 9.72177 31.2098 9.53617 31.4886 9.39697C31.535 9.44337 31.628 9.53617 31.6744 9.58257C31.4421 9.81457 31.2562 10.0466 31.0239 10.2322C28.3289 12.2737 25.6339 14.2689 22.9389 16.2641C22.5207 16.5889 22.1489 16.8673 22.1954 17.5169C22.1954 17.8881 21.8701 18.3521 21.5449 18.6305C20.662 19.3729 19.6862 19.9761 18.8034 20.7185C17.7347 21.6465 16.1084 21.5537 15.1791 20.1617C14.9932 19.8369 14.7609 19.5585 14.2962 19.3265C14.2962 21.2753 14.2497 23.224 14.2962 25.1728C14.3891 29.3488 14.575 33.5248 14.6679 37.7007C14.7144 38.8607 14.7144 40.0671 14.7609 41.2271C14.8073 42.3871 14.3427 42.9439 13.181 43.0367C11.9729 43.1295 11.2295 42.5727 11.0901 41.5055C10.6254 37.2367 10.1608 33.0144 9.74257 28.7456C9.6961 28.4672 9.60317 28.2352 9.5567 28.0032C9.46377 28.0032 9.37084 28.0032 9.23144 28.0032Z" fill="#0086E4"></path>
<path d="M18.7102 7.30896C18.2455 7.30896 17.8738 7.30896 17.5021 7.30896C17.2233 5.54578 18.3385 4.06099 20.0112 3.82899C20.383 3.78259 20.8011 3.78259 21.1729 3.78259C31.2095 3.78259 41.1996 3.78259 51.2363 3.78259C53.8848 3.78259 55 4.89618 55 7.49456C55 12.1809 55 16.9137 55 21.6C55 23.5024 55 25.4048 55 27.2608C54.9535 29.2096 53.6989 30.5088 51.7474 30.5088C41.3855 30.5088 30.9772 30.5088 20.6153 30.5088C18.6173 30.5088 17.3627 29.1632 17.4556 27.168C17.8738 27.168 18.2455 27.168 18.6637 27.168C19.1284 28.8384 19.5001 29.1168 21.2658 29.1168C31.2095 29.1168 41.1532 29.1168 51.1433 29.1168C53.0949 29.1168 53.606 28.56 53.606 26.6112C53.606 20.2544 53.606 13.8513 53.606 7.49456C53.606 5.73138 53.0484 5.17458 51.2363 5.17458C41.1996 5.17458 31.1166 5.17458 21.0799 5.17458C19.4536 5.22098 18.989 5.63858 18.7102 7.30896Z" fill="#0086E4"></path>
<path d="M13.831 5.08184C13.8775 7.49462 11.9259 9.4434 9.50972 9.4434C7.13997 9.4434 5.1884 7.58742 5.14194 5.17464C5.049 2.80826 7.00057 0.81308 9.41679 0.766681C11.833 0.720281 13.7846 2.66906 13.831 5.08184Z" fill="#0086E4"></path>
<path d="M41.5713 43.0364C37.8076 43.0364 34.1368 43.0364 30.466 43.0364C30.2801 40.0669 31.8599 38.1645 34.8802 37.9789C40.0844 37.6077 40.9208 39.2317 41.5713 43.0364Z" fill="#0086E4"></path>
<path d="M43.6161 43.0366C44.0808 39.2782 45.6142 37.8862 49.2385 37.9326C52.9093 37.9326 54.4427 39.3246 54.8144 43.0366C51.0971 43.0366 47.3799 43.0366 43.6161 43.0366Z" fill="#0086E4"></path>
<path d="M28.2818 43.0367C24.518 43.0367 20.8472 43.0367 17.13 43.0367C17.5946 39.2319 18.6633 38.1183 22.2877 37.8863C26.1908 37.7007 27.91 39.2319 28.2818 43.0367Z" fill="#0086E4"></path>
<path d="M35.9963 37.6081C34.2771 37.6081 32.9761 36.3089 32.9296 34.5922C32.9296 32.8754 34.2771 31.5298 35.9499 31.5298C37.6226 31.5298 39.0166 32.8754 39.0166 34.5922C39.0631 36.3089 37.7156 37.6081 35.9963 37.6081Z" fill="#0086E4"></path>
<path d="M22.7528 37.6541C21.0335 37.6541 19.686 36.3086 19.686 34.6382C19.686 32.9678 21.08 31.5758 22.7528 31.5758C24.472 31.5758 25.773 32.9214 25.8195 34.6382C25.773 36.3086 24.472 37.6077 22.7528 37.6541Z" fill="#0086E4"></path>
<path d="M52.2594 34.6386C52.2594 36.3553 50.9119 37.6545 49.1927 37.6081C47.5199 37.6081 46.1259 36.2161 46.1724 34.5458C46.2189 32.8754 47.6128 31.5298 49.2856 31.5298C51.0048 31.5762 52.3059 32.9218 52.2594 34.6386Z" fill="#0086E4"></path>
</svg>