<svg xmlns:xlink="http://www.w3.org/1999/xlink" width="41" height="57" viewBox="0 0 41 57" fill="none" xmlns="http://www.w3.org/2000/svg">
<path d="M37.4125 37.4125V31.5159L34.9241 32.4841L34.9168 32.4676L34.8575 32.36C33.9039 30.8753 32.3618 29.8424 30.6253 29.5276L24.6375 28.438V27.9654C26.8768 26.6651 28.5165 24.4468 29.0275 21.8242C30.6865 21.4811 31.9375 20.0093 31.9375 18.25V9.23723C31.9375 6.69045 30.2695 4.46942 27.8495 3.74672L27.3933 3.29047C25.2708 1.168 22.4493 0 19.4481 0C13.2531 0 8.2125 5.03973 8.2125 11.2356V18.25C8.2125 20.0093 9.46354 21.4811 11.1225 21.8242C11.6344 24.4468 13.2732 26.666 15.5125 27.9654V28.438L9.52559 29.5267C7.79093 29.8415 6.24971 30.8726 5.29524 32.3563L5.24049 32.4895L2.7375 31.5159V37.4125C1.22822 37.4125 0 38.6407 0 40.15V43.8C0 45.3092 1.22822 46.5375 2.7375 46.5375V49.8991L20.075 56.6425L37.4125 49.8991V46.5375C38.9218 46.5375 40.15 45.3092 40.15 43.8V40.15C40.15 38.6407 38.9218 37.4125 37.4125 37.4125ZM26.3475 30.6043L30.2987 31.3225C31.4621 31.5342 32.4923 32.2058 33.1794 33.1621L24.351 36.5949L26.3475 30.6043ZM17.4151 28.8021C18.2573 29.0595 19.1497 29.2 20.075 29.2C21.0003 29.2 21.8927 29.0595 22.7349 28.8021L20.075 30.7969L17.4151 28.8021ZM18.6862 32.036L16.8238 33.8975L15.6156 30.274L16.1969 30.1691L18.6862 32.036ZM23.9531 30.17L24.5344 30.2749L23.3262 33.8984L21.4638 32.0369L23.9531 30.17ZM29.2 19.8213V16.6787C29.7429 16.9953 30.1125 17.5775 30.1125 18.25C30.1125 18.9225 29.7429 19.5047 29.2 19.8213ZM10.95 19.8213C10.4071 19.5047 10.0375 18.9225 10.0375 18.25C10.0375 17.5775 10.4071 16.9953 10.95 16.6787V19.8213ZM10.95 13.6875V14.7296C10.6252 14.8144 10.3204 14.9422 10.0375 15.1073V11.2356C10.0375 6.04713 14.2587 1.825 19.4481 1.825C21.9611 1.825 24.3254 2.80411 26.103 4.58166L26.9078 5.3874L27.1533 5.44762C28.8961 5.88288 30.1125 7.44143 30.1125 9.23723V15.1073C29.8296 14.9422 29.5249 14.8135 29.2 14.7296V13.6875H26.3065C23.8336 13.6875 21.4702 12.5067 19.9874 10.5293L19.262 9.56026L17.4488 11.3743C15.956 12.8662 13.9722 13.6875 11.8625 13.6875H10.95ZM12.775 20.075V15.4705C15.028 15.2616 17.1185 14.2843 18.7391 12.6646L19.0941 12.3096C20.9236 14.329 23.5589 15.5125 26.3065 15.5125H27.375V20.075C27.375 24.1 24.1 27.375 20.075 27.375C16.05 27.375 12.775 24.1 12.775 20.075ZM9.85135 31.3225L13.8025 30.6043L15.799 36.5949L6.96876 33.1611C7.65588 32.2039 8.68791 31.5342 9.85135 31.3225ZM1.825 43.8V40.15C1.825 39.6463 2.23471 39.2375 2.7375 39.2375C4.24678 39.2375 5.475 40.4657 5.475 41.975C5.475 43.4842 4.24678 44.7125 2.7375 44.7125C2.23471 44.7125 1.825 44.3037 1.825 43.8ZM19.1625 54.3284L4.5625 48.6517V46.1506C6.17124 45.4443 7.3 43.841 7.3 41.975C7.3 40.1089 6.17124 38.5057 4.5625 37.7994V34.1841L19.1625 39.8616V54.3284ZM16.4533 36.8504L20.075 33.2278L23.6967 36.8495L20.075 38.2584L16.4533 36.8504ZM35.5875 48.6508L20.9875 54.3275V39.8616L35.5875 34.1841V37.7994C33.9788 38.5057 32.85 40.1089 32.85 41.975C32.85 43.841 33.9788 45.4443 35.5875 46.1506V48.6508ZM38.325 43.8C38.325 44.3037 37.9153 44.7125 37.4125 44.7125C35.9032 44.7125 34.675 43.4842 34.675 41.975C34.675 40.4657 35.9032 39.2375 37.4125 39.2375C37.9153 39.2375 38.325 39.6463 38.325 40.15V43.8Z" fill="#0086E4"></path>
</svg>