<svg xmlns:xlink="http://www.w3.org/1999/xlink" width="49" height="50" viewBox="0 0 49 50" fill="none" xmlns="http://www.w3.org/2000/svg">
<path d="M24.5 43.4495C25.0286 43.4495 25.457 43.021 25.457 42.4924C25.457 41.9639 25.0286 41.5354 24.5 41.5354C23.9714 41.5354 23.543 41.9639 23.543 42.4924C23.543 43.021 23.9714 43.4495 24.5 43.4495Z" fill="#0086E4"></path>
<path d="M40.1961 13.5746L24.8836 6.87541C24.6391 6.76842 24.3609 6.76842 24.1164 6.87541C14.7265 10.9835 8.82038 13.5675 8.81062 13.5717C8.80115 13.58 8.23047 13.8037 8.23047 14.4515V20.3583C7.11658 20.7533 6.31641 21.8171 6.31641 23.0647V26.8929C6.31641 27.4214 6.74496 27.8499 7.27344 27.8499H11.1016C11.63 27.8499 12.0586 27.4214 12.0586 26.8929V23.0647C12.0586 21.8172 11.2584 20.7533 10.1445 20.3583V15.9148L15.8867 18.427V24.9788C15.8867 25.3572 16.1097 25.7001 16.4556 25.8536C16.6392 25.9351 20.9946 27.8499 24.5 27.8499C28.0054 27.8499 32.3608 25.9351 32.5444 25.8536C32.8903 25.7001 33.1133 25.3572 33.1133 24.9788V18.427L40.1961 15.3283C40.5445 15.1759 40.7695 14.8318 40.7695 14.4515C40.7695 14.0711 40.5444 13.7271 40.1961 13.5746ZM10.1445 25.9358H8.23047V23.0647C8.23047 22.537 8.65979 22.1077 9.1875 22.1077C9.71521 22.1077 10.1445 22.537 10.1445 23.0647V25.9358ZM31.1992 24.3397C29.9567 24.8345 26.919 25.9358 24.5 25.9358C22.0865 25.9358 19.0444 24.8339 17.8008 24.3393V19.2644L24.1164 22.0275C24.3608 22.1344 24.6391 22.1345 24.8836 22.0275L31.1992 19.2644V24.3397ZM24.5 20.1061C22.6696 19.3052 13.4072 15.253 11.5752 14.4515L24.5 8.79684L37.4248 14.4515C35.7422 15.1875 25.4802 19.6772 24.5 20.1061Z" fill="#0086E4"></path>
<path d="M44.2148 20.1936H35.9844C35.4559 20.1936 35.0273 20.6221 35.0273 21.1506C35.0273 21.6792 35.4559 22.1077 35.9844 22.1077H44.2148C44.7433 22.1077 45.1719 21.6792 45.1719 21.1506C45.1719 20.6221 44.7433 20.1936 44.2148 20.1936Z" fill="#0086E4"></path>
<path d="M44.2148 24.0217H35.9844C35.4559 24.0217 35.0273 24.4502 35.0273 24.9788C35.0273 25.5073 35.4559 25.9358 35.9844 25.9358H44.2148C44.7433 25.9358 45.1719 25.5073 45.1719 24.9788C45.1719 24.4502 44.7433 24.0217 44.2148 24.0217Z" fill="#0086E4"></path>
<path d="M24.5 2.67993C25.0286 2.67993 25.457 2.25145 25.457 1.7229C25.457 1.19435 25.0286 0.765869 24.5 0.765869C23.9714 0.765869 23.543 1.19435 23.543 1.7229C23.543 2.25145 23.9714 2.67993 24.5 2.67993Z" fill="#0086E4"></path>
<path d="M48.043 0.765869H28.8066C28.2782 0.765869 27.8496 1.19433 27.8496 1.7229C27.8496 2.25147 28.2782 2.67993 28.8066 2.67993H47.0859V31.9651H1.91406V2.67993H20.1934C20.7218 2.67993 21.1504 2.25147 21.1504 1.7229C21.1504 1.19433 20.7218 0.765869 20.1934 0.765869H0.957031C0.428559 0.765869 0 1.19433 0 1.7229V38.6643C0 39.1929 0.428559 39.6213 0.957031 39.6213H19.5174L17.9645 47.8518H14.9297C14.4012 47.8518 13.9727 48.2803 13.9727 48.8088C13.9727 49.3374 14.4012 49.7659 14.9297 49.7659H34.0703C34.5988 49.7659 35.0273 49.3374 35.0273 48.8088C35.0273 48.2803 34.5988 47.8518 34.0703 47.8518H31.0355L29.4826 39.6213H48.043C48.5714 39.6213 49 39.1929 49 38.6643V1.7229C49 1.19433 48.5714 0.765869 48.043 0.765869ZM19.9123 47.8518L21.4652 39.6213H27.5347L29.0876 47.8518H19.9123ZM47.0859 37.7073C46.0745 37.7073 2.02106 37.7073 1.91406 37.7073V33.8792H47.0859V37.7073Z" fill="#0086E4"></path>
</svg>