<svg xmlns:xlink="http://www.w3.org/1999/xlink" width="50" height="39" viewBox="0 0 50 39" fill="none" xmlns="http://www.w3.org/2000/svg">
<path d="M45.9677 0H10.4839C9.54285 0.00132154 8.63184 0.331249 7.9082 0.932793C7.18455 1.53434 6.69371 2.36972 6.52046 3.29466C5.72051 3.44506 4.98459 3.83346 4.40902 4.40902C3.83346 4.98459 3.44506 5.72051 3.29466 6.52046C2.36972 6.69371 1.53434 7.18455 0.932792 7.9082C0.331248 8.63184 0.00132154 9.54285 0 10.4839V34.6774C0.00120066 35.7465 0.426412 36.7714 1.18235 37.5273C1.93828 38.2833 2.96321 38.7085 4.03226 38.7097H39.5161C40.4571 38.7084 41.3682 38.3784 42.0918 37.7769C42.8154 37.1753 43.3063 36.34 43.4795 35.415C44.2795 35.2646 45.0154 34.8762 45.591 34.3007C46.1665 33.7251 46.5549 32.9892 46.7053 32.1892C47.6303 32.016 48.4657 31.5251 49.0672 30.8015C49.6688 30.0778 49.9987 29.1668 50 28.2258V4.03226C49.9988 2.96321 49.5736 1.93828 48.8177 1.18235C48.0617 0.426412 47.0368 0.00120066 45.9677 0ZM1.6129 10.4839C1.61362 9.84244 1.86875 9.22748 2.32231 8.77392C2.77587 8.32036 3.39083 8.06524 4.03226 8.06452H39.5161C40.1576 8.06524 40.7725 8.32036 41.2261 8.77392C41.6796 9.22748 41.9348 9.84244 41.9355 10.4839V11.2903H1.6129V10.4839ZM41.9355 34.6774C41.9348 35.3189 41.6796 35.9338 41.2261 36.3874C40.7725 36.8409 40.1576 37.0961 39.5161 37.0968H4.03226C3.39083 37.0961 2.77587 36.8409 2.32231 36.3874C1.86875 35.9338 1.61362 35.3189 1.6129 34.6774V12.9032H41.9355V34.6774ZM45.1613 31.4516C45.1607 31.9517 45.0053 32.4394 44.7165 32.8477C44.4278 33.2561 44.0197 33.565 43.5484 33.7323V10.4839C43.5472 9.41482 43.122 8.38989 42.366 7.63396C41.6101 6.87803 40.5852 6.45281 39.5161 6.45161H4.97742C5.14465 5.98028 5.45362 5.57224 5.86195 5.28347C6.27027 4.9947 6.75795 4.83934 7.25806 4.83871H42.7419C43.3834 4.83943 43.9983 5.09456 44.4519 5.54812C44.9054 6.00168 45.1606 6.61663 45.1613 7.25806V31.4516ZM48.3871 28.2258C48.3865 28.7259 48.2311 29.2136 47.9423 29.6219C47.6536 30.0302 47.2455 30.3392 46.7742 30.5065V7.25806C46.773 6.18901 46.3478 5.16409 45.5918 4.40815C44.8359 3.65222 43.811 3.22701 42.7419 3.22581H8.20323C8.37046 2.75448 8.67943 2.34644 9.08776 2.05766C9.49608 1.76889 9.98375 1.61353 10.4839 1.6129H45.9677C46.6092 1.61362 47.2241 1.86875 47.6777 2.32231C48.1313 2.77587 48.3864 3.39083 48.3871 4.03226V28.2258Z" fill="#0086E4"></path>
<path d="M4.03222 10.4841C4.47761 10.4841 4.83867 10.123 4.83867 9.67761C4.83867 9.23222 4.47761 8.87116 4.03222 8.87116C3.58683 8.87116 3.22577 9.23222 3.22577 9.67761C3.22577 10.123 3.58683 10.4841 4.03222 10.4841Z" fill="#0086E4"></path>
<path d="M7.25805 10.4841C7.70344 10.4841 8.0645 10.123 8.0645 9.67761C8.0645 9.23222 7.70344 8.87116 7.25805 8.87116C6.81266 8.87116 6.4516 9.23222 6.4516 9.67761C6.4516 10.123 6.81266 10.4841 7.25805 10.4841Z" fill="#0086E4"></path>
<path d="M10.4839 10.4841C10.9293 10.4841 11.2903 10.123 11.2903 9.67761C11.2903 9.23222 10.9293 8.87116 10.4839 8.87116C10.0385 8.87116 9.67742 9.23222 9.67742 9.67761C9.67742 10.123 10.0385 10.4841 10.4839 10.4841Z" fill="#0086E4"></path>
<path d="M12.9032 29.8386H30.6451C30.859 29.8386 31.0641 29.7536 31.2154 29.6024C31.3666 29.4511 31.4516 29.246 31.4516 29.0321V16.1289C31.4516 15.915 31.3666 15.7099 31.2154 15.5587C31.0641 15.4074 30.859 15.3225 30.6451 15.3225H12.9032C12.6893 15.3225 12.4842 15.4074 12.333 15.5587C12.1817 15.7099 12.0967 15.915 12.0967 16.1289V29.0321C12.0967 29.246 12.1817 29.4511 12.333 29.6024C12.4842 29.7536 12.6893 29.8386 12.9032 29.8386ZM13.7097 16.9354H29.8387V28.2257H13.7097V16.9354Z" fill="#0086E4"></path>
<path d="M19.768 24.0908C19.8933 24.1608 20.0349 24.1961 20.1784 24.1931C20.3218 24.1901 20.4619 24.1489 20.5841 24.0737L24.5155 21.6543C24.6328 21.5821 24.7296 21.4811 24.7968 21.3609C24.864 21.2407 24.8993 21.1052 24.8993 20.9675C24.8993 20.8298 24.864 20.6944 24.7968 20.5742C24.7296 20.4539 24.6328 20.3529 24.5155 20.2807L20.5841 17.8614C20.4619 17.7861 20.3218 17.7448 20.1783 17.7418C20.0348 17.7387 19.8931 17.774 19.7679 17.844C19.6426 17.914 19.5382 18.0162 19.4656 18.14C19.393 18.2637 19.3547 18.4047 19.3547 18.5482V23.3869C19.3548 23.5304 19.3931 23.6713 19.4657 23.795C19.5384 23.9187 19.6427 24.0209 19.768 24.0908ZM20.9676 19.9913L22.5539 20.9675L20.9676 21.9437V19.9913Z" fill="#0086E4"></path>
<path d="M27.4194 25.0001H25.8064C25.8064 24.7862 25.7215 24.5811 25.5702 24.4298C25.419 24.2786 25.2139 24.1936 25 24.1936C24.7861 24.1936 24.581 24.2786 24.4297 24.4298C24.2785 24.5811 24.1935 24.7862 24.1935 25.0001H16.129C15.9151 25.0001 15.71 25.085 15.5588 25.2363C15.4075 25.3875 15.3226 25.5926 15.3226 25.8065C15.3226 26.0204 15.4075 26.2255 15.5588 26.3768C15.71 26.528 15.9151 26.613 16.129 26.613H24.1935C24.1935 26.8269 24.2785 27.032 24.4297 27.1832C24.581 27.3345 24.7861 27.4194 25 27.4194C25.2139 27.4194 25.419 27.3345 25.5702 27.1832C25.7215 27.032 25.8064 26.8269 25.8064 26.613H27.4194C27.6332 26.613 27.8384 26.528 27.9896 26.3768C28.1408 26.2255 28.2258 26.0204 28.2258 25.8065C28.2258 25.5926 28.1408 25.3875 27.9896 25.2363C27.8384 25.085 27.6332 25.0001 27.4194 25.0001Z" fill="#0086E4"></path>
<path d="M12.9032 32.2578H30.6451C30.859 32.2578 31.0641 32.1729 31.2154 32.0216C31.3666 31.8704 31.4516 31.6653 31.4516 31.4514C31.4516 31.2375 31.3666 31.0324 31.2154 30.8811C31.0641 30.7299 30.859 30.6449 30.6451 30.6449H12.9032C12.6893 30.6449 12.4842 30.7299 12.333 30.8811C12.1817 31.0324 12.0967 31.2375 12.0967 31.4514C12.0967 31.6653 12.1817 31.8704 12.333 32.0216C12.4842 32.1729 12.6893 32.2578 12.9032 32.2578Z" fill="#0086E4"></path>
<path d="M12.9032 34.6777H24.1935C24.4074 34.6777 24.6125 34.5927 24.7638 34.4415C24.915 34.2902 25 34.0851 25 33.8712C25 33.6573 24.915 33.4522 24.7638 33.301C24.6125 33.1497 24.4074 33.0648 24.1935 33.0648H12.9032C12.6893 33.0648 12.4842 33.1497 12.333 33.301C12.1817 33.4522 12.0967 33.6573 12.0967 33.8712C12.0967 34.0851 12.1817 34.2902 12.333 34.4415C12.4842 34.5927 12.6893 34.6777 12.9032 34.6777Z" fill="#0086E4"></path>
<path d="M27.4193 33.0648H26.6128C26.3989 33.0648 26.1938 33.1497 26.0426 33.301C25.8913 33.4522 25.8064 33.6573 25.8064 33.8712C25.8064 34.0851 25.8913 34.2902 26.0426 34.4415C26.1938 34.5927 26.3989 34.6777 26.6128 34.6777H27.4193C27.6332 34.6777 27.8383 34.5927 27.9895 34.4415C28.1408 34.2902 28.2257 34.0851 28.2257 33.8712C28.2257 33.6573 28.1408 33.4522 27.9895 33.301C27.8383 33.1497 27.6332 33.0648 27.4193 33.0648Z" fill="#0086E4"></path>
</svg>